HIERARCHY
ROOT hip
{
	OFFSET 0.000000 0.000000 0.000000 
	CHANNELS 6 Xposition Yposition Zposition Xrotation Zrotation Yrotation
	JOINT abdomen
	{
		OFFSET 0.000000 3.402643 0.000000 
		CHANNELS 3 Xrotation Zrotation Yrotation
		JOINT chest
		{
			OFFSET 0.000000 8.438565 -0.680529 
			CHANNELS 3 Xrotation Zrotation Yrotation
			JOINT neck
			{
				OFFSET 0.000000 10.207942 -0.272212 
				CHANNELS 3 Xrotation Zrotation Yrotation
				JOINT head
				{
					OFFSET 0.000000 3.130431 0.000000 
					CHANNELS 3 Xrotation Zrotation Yrotation
					End Site
					{
						OFFSET 0.000000 3.130435 0.000000 
					}
				}
			}
			JOINT lCollar
			{
				OFFSET 3.470700 6.669187 -0.816635 
				CHANNELS 3 Yrotation Zrotation Xrotation
				JOINT lShldr
				{
					OFFSET 3.198488 0.000000 0.000000 
					CHANNELS 3 Zrotation Yrotation Xrotation
					JOINT lForeArm
					{
						OFFSET 10.139888 0.000000 0.000000 
						CHANNELS 3 Yrotation Zrotation Xrotation
						JOINT lHand
						{
							OFFSET 8.370511 0.000000 0.000000 
							CHANNELS 3 Zrotation Yrotation Xrotation
							End Site
							{
								OFFSET 4.083176 0.000000 0.000000 
							}
						}
					}
				}
			}
			JOINT rCollar
			{
				OFFSET -3.470700 6.669187 -0.816635 
				CHANNELS 3 Yrotation Zrotation Xrotation
				JOINT rShldr
				{
					OFFSET -3.198488 0.000000 0.000000 
					CHANNELS 3 Zrotation Yrotation Xrotation
					JOINT rForeArm
					{
						OFFSET -10.139888 0.000000 0.000000 
						CHANNELS 3 Yrotation Zrotation Xrotation
						JOINT rHand
						{
							OFFSET -8.370511 0.000000 0.000000 
							CHANNELS 3 Zrotation Yrotation Xrotation
							End Site
							{
								OFFSET -4.083176 0.000000 0.000000 
							}
						}
					}
				}
			}
		}
	}
	JOINT lThigh
	{
		OFFSET 5.308129 -1.633274 1.361059 
		CHANNELS 3 Xrotation Zrotation Yrotation
		JOINT lShin
		{
			OFFSET -2.041588 -20.007561 0.000000 
			CHANNELS 3 Xrotation Zrotation Yrotation
			JOINT lFoot
			{
				OFFSET 0.000000 -19.190928 -1.224953 
				CHANNELS 3 Xrotation Yrotation Zrotation
				End Site
				{
					OFFSET 0.000000 -2.449906 4.627600 
				}
			}
		}
	}
	JOINT rThigh
	{
		OFFSET -5.308129 -1.633274 1.361059 
		CHANNELS 3 Xrotation Zrotation Yrotation
		JOINT rShin
		{
			OFFSET 2.041588 -20.007561 0.000000 
			CHANNELS 3 Xrotation Zrotation Yrotation
			JOINT rFoot
			{
				OFFSET 0.000000 -19.190928 -1.224953 
				CHANNELS 3 Xrotation Yrotation Zrotation
				End Site
				{
					OFFSET 0.000000 -2.449906 4.627600 
				}
			}
		}
	}
}
MOTION
Frames: 15
Frame Time: 0.033333
-15.975163 36.429760 20.847296 -2.493048 26.726248 79.406853 0.000000 0.000000 0.000000 17.769407 1.432189 6.884807 13.881754 -0.352541 6.107150 13.737188 2.927682 -4.063109 0.127265 6.509165 16.783072 -58.181404 -8.198195 17.393808 -39.212448 -1.847663 27.316902 -11.362571 -2.005368 -2.879149 5.250152 9.230820 16.438641 45.543816 7.934156 2.149619 45.147255 4.240481 11.495701 -2.753494 -4.067099 -3.494634 -27.495264 3.621808 0.978285 32.350819 -1.606455 22.656248 10.910069 -0.251298 -2.790137 -19.397840 -16.958336 4.904197 85.384766 -3.200123 26.515675 -29.230204 0.589439 -2.270303 
-17.296225 36.127743 20.873972 -2.416941 26.747078 78.611176 0.000000 0.000000 0.000000 17.294174 2.629584 6.248110 14.262184 0.154412 6.034478 13.058682 1.733032 -3.380385 -0.562087 7.125777 16.344408 -58.715523 -7.026422 16.652983 -39.512196 -1.314216 27.891211 -11.902720 -1.306715 -2.929716 4.766860 9.652382 15.904765 45.165756 9.571955 1.929422 45.277584 3.555767 14.611079 -1.803336 -4.644052 -3.502248 -26.854692 4.187088 0.756895 28.133526 -1.812889 24.032110 12.904711 -0.453010 -4.221392 -21.057442 -16.431078 4.404602 84.208847 -2.900445 25.618439 -31.039835 0.576853 -2.086353 
-18.605345 35.842205 21.125158 -2.517607 28.287453 78.175270 0.000000 0.000000 0.000000 17.742001 3.637251 5.469569 15.320090 0.411633 5.849650 12.266046 0.867366 -2.786138 -0.633359 7.108671 16.713720 -58.210949 -7.062060 16.470991 -39.550282 -1.364468 27.211906 -11.114293 -0.410126 -3.066424 4.229973 9.989318 16.254160 45.452747 10.862565 2.105375 46.017666 3.464126 14.395315 -1.563089 -6.165387 -3.502047 -23.814110 4.998763 0.954577 22.179653 -2.173996 24.712532 15.233393 -0.685819 -5.189463 -20.109737 -15.785872 2.424030 81.478081 -2.829612 21.461546 -34.305595 0.190251 -0.561546 
-20.009577 35.723534 21.485067 -2.646397 28.997507 77.236725 0.000000 0.000000 0.000000 17.471859 4.267088 4.965305 15.916348 0.670754 5.927034 11.875049 0.311991 -2.140317 -0.624189 7.233581 16.436718 -58.749676 -6.221232 15.169477 -39.500164 -0.935305 26.493114 -6.110597 -1.286403 -3.175683 4.101689 10.312355 15.954882 46.579849 12.057079 3.084109 44.930927 4.098286 13.252995 -2.938573 -5.751947 -3.472071 -19.329748 6.540939 1.295242 12.310588 -2.519577 26.143154 19.686028 -1.548481 -8.977732 -21.917862 -14.986421 0.548851 81.278244 -2.870890 15.940310 -31.581097 -0.158445 0.525970 
-21.470678 35.641102 21.979252 -3.379210 29.205561 76.250214 0.000000 0.000000 0.000000 16.844877 5.057718 4.849373 16.258310 1.375887 6.061422 11.298894 -0.399948 -1.708350 -0.586093 8.036577 15.835804 -60.862450 -5.262027 12.279286 -39.144840 0.185054 26.889465 -8.089611 0.371929 -3.231955 3.259904 11.675182 15.425815 47.679886 12.606663 4.206515 44.516441 5.183879 9.843772 -4.200170 -5.470031 -3.452820 -13.332690 8.725528 2.002499 -1.050215 -2.214581 25.367668 26.751822 -2.912227 -12.189592 -24.000389 -13.621282 -1.200492 80.415497 -2.616416 11.691632 -27.761827 -0.194392 0.730003 
-22.933567 35.514259 22.547434 -4.029361 28.943815 75.316010 0.000000 0.000000 0.000000 16.018524 5.689727 4.756052 15.739103 1.723316 6.224979 11.475042 -0.994843 -1.280529 -0.106865 8.646988 15.013886 -62.685768 -3.786653 10.120750 -40.790459 1.048138 26.187717 -8.671961 -0.468709 -3.140134 3.332867 12.495326 14.620028 48.954063 11.932833 4.896441 45.020187 5.339534 11.144672 -2.837167 -6.430529 -3.472952 -13.853760 11.598356 2.166147 -1.835893 -1.522939 19.438215 34.389362 -6.241578 -20.032553 -26.148443 -12.478672 -2.698474 79.410965 -1.708503 11.251821 -24.300396 0.276458 -1.299545 
-24.359871 35.434475 23.060118 -3.948344 29.160778 74.969810 0.000000 0.000000 0.000000 15.494212 5.544239 4.386119 15.107573 1.754742 5.951789 11.748693 -1.160360 -0.874488 0.102140 8.431259 14.542449 -63.810448 -2.204657 9.195868 -42.674152 1.405908 24.735928 -8.886779 0.126876 -3.195559 3.304284 12.760963 14.173932 49.739067 11.348433 6.733345 45.054001 6.100607 10.372029 -3.137147 -6.596209 -3.462568 -13.684854 13.938070 3.440989 -1.889235 -2.436559 9.816925 38.679665 -9.642405 -27.009146 -27.678761 -11.540062 -3.817286 77.949226 -1.152584 9.761858 -20.897884 0.498368 -2.741256 
-25.872253 35.438873 23.546625 -3.584764 30.263630 76.033783 0.000000 0.000000 0.000000 15.746019 5.038981 3.616428 14.814216 1.844986 4.944603 12.051261 -0.955299 -0.751066 -0.547575 8.289678 14.897049 -65.070366 -1.490712 8.858650 -44.004906 1.583741 23.792114 -9.225569 -0.124423 -3.161386 3.284777 11.647648 14.454398 51.776173 10.503036 8.141623 44.410793 6.596337 10.521982 -2.934177 -6.583410 -3.470435 -11.910690 14.263055 4.613267 -0.966453 -3.530513 -2.311317 34.424835 -8.892683 -28.129858 -27.727562 -11.051650 -5.293001 75.743912 -0.653591 7.138987 -17.498960 0.556614 -3.677870 
-27.365055 35.525585 23.987329 -3.850763 31.260881 77.229630 0.000000 0.000000 0.000000 16.205204 4.971190 3.171649 14.312593 2.286407 3.840196 12.558989 -0.808616 -0.915418 -1.840168 8.607455 15.476462 -66.393608 -1.416873 9.318730 -44.375328 1.584182 24.134052 -7.828567 -1.707410 -3.068320 2.561798 11.826718 14.978783 52.428276 8.820001 8.788903 44.989693 6.575174 11.931630 -1.604154 -7.371396 -3.508366 -18.471834 14.429468 3.910664 19.851027 -3.487011 -16.251438 22.960701 -4.963556 -24.052441 -27.240080 -9.401958 -6.054141 72.579895 -0.342011 3.614358 -13.858596 0.434655 -3.603922 
-28.970873 35.756886 24.376688 -4.112525 32.267265 78.398094 0.000000 0.000000 0.000000 16.888710 4.860182 2.948599 14.077662 2.373115 2.831098 12.959162 -0.516083 -1.279629 -2.749125 8.612609 16.207672 -67.289352 -1.832955 10.528306 -44.451626 1.330957 25.340099 -10.161477 -1.362423 -3.004612 2.904712 11.563478 15.553427 53.381290 6.865889 9.067768 44.164116 7.072394 10.608080 -3.001227 -6.900762 -3.458220 -22.922886 13.686881 3.274765 37.257587 -2.152627 -20.868399 15.047156 -2.286718 -17.066563 -26.281393 -7.272862 -5.869762 68.421036 -0.302880 0.164330 -9.747016 0.245420 -3.098586 
-30.524315 35.986416 24.627619 -4.189595 32.928059 79.379967 0.000000 0.000000 0.000000 17.086441 4.537508 2.906954 14.091670 2.383271 2.227755 13.222686 0.204412 -1.682669 -3.450211 8.101621 16.465029 -68.090599 -1.520907 11.333570 -44.522305 1.193169 27.375772 -10.705925 -1.417532 -2.975726 2.852373 10.767296 15.778933 54.374454 4.875712 9.966335 42.890419 7.811759 9.980137 -2.873452 -7.381976 -3.456331 -26.539360 11.853789 1.963277 53.032948 -0.122757 -23.996935 9.795891 -1.049907 -12.146795 -25.525045 -5.585756 -5.292206 63.783947 -0.147762 -2.151144 -5.338610 0.125985 -2.890534 
-32.205238 36.239620 24.706900 -3.783039 32.677551 79.305069 0.000000 0.000000 0.000000 16.932936 3.802813 3.461495 13.734475 1.886563 2.288924 13.164539 0.827450 -2.189719 -2.954811 7.630814 16.281298 -68.853180 -1.051960 12.550657 -44.995876 0.763452 27.404818 -10.336417 -0.353976 -3.102266 3.195128 10.155803 15.679585 55.106041 2.649375 10.337364 42.116787 8.132620 11.524597 -2.166968 -7.973777 -3.481641 -28.634420 9.674708 2.976122 64.932388 0.558975 -17.934837 6.214004 -0.392243 -7.000708 -25.640200 -3.905777 -3.907674 58.615967 -0.313199 -4.794137 -1.538114 0.033619 -2.957577 
-33.991520 36.786282 24.765919 -3.981324 32.437302 80.639099 0.000000 0.000000 0.000000 16.890474 3.635403 2.890349 13.637494 1.878973 1.484438 12.568994 1.022936 -2.370336 -3.883925 8.048196 16.347591 -70.505333 -0.204840 13.159138 -44.774181 0.546583 27.170662 -10.136841 0.369240 -3.177351 3.073759 10.193111 15.654532 56.082314 1.381767 10.607228 40.417274 9.395744 6.542713 -5.174032 -7.353275 -3.382553 -28.022253 6.815235 2.407558 74.100845 1.682616 -21.961914 1.152462 -0.048489 -1.942696 -24.347641 -3.465739 -4.012663 52.486755 0.495565 -6.167359 0.912625 -0.024242 -1.216884 
-35.915585 37.168087 24.662476 -4.385062 31.926517 81.222855 0.000000 0.000000 0.000000 16.812565 3.655601 2.978925 13.550004 1.744522 1.382546 12.413522 1.559048 -2.884242 -4.182903 8.381221 16.325417 -71.534126 0.542707 14.511375 -45.116844 0.012481 26.549627 -10.236476 0.618676 -3.200541 3.107206 10.193884 15.579667 56.212860 -0.430110 10.941279 40.080101 9.980686 5.490335 -6.420249 -7.004652 -3.348515 -26.400536 4.735350 2.972993 77.463509 1.454175 -24.617302 -2.296496 -0.046187 1.812671 -23.327980 -3.417913 -4.123774 46.001759 1.552054 -6.697476 4.109869 0.028848 1.483270 
-37.966576 37.506096 24.527571 -4.656901 30.444517 81.625122 0.000000 0.000000 0.000000 16.039467 3.660743 3.356633 13.227530 1.580537 1.474705 12.160184 1.910378 -3.445476 -3.946948 9.043224 15.643732 -72.620628 1.344379 16.098360 -45.154751 -0.573074 26.318905 -10.284203 0.802157 -3.217437 3.493115 10.037766 14.846666 56.401470 -3.101679 10.110042 40.800541 8.910600 12.109575 -1.275314 -8.906894 -3.518411 -23.978840 4.139319 4.461832 68.971298 -0.347845 -14.121314 -7.952751 -0.394613 5.363729 -22.767559 -3.953996 -4.387114 38.744530 3.045806 -6.410800 8.348978 0.455636 6.385099 
